<?xml version="1.0" standalone="no"?><!DOCTYPE svg PUBLIC "-//W3C//DTD SVG 1.1//EN" "http://www.w3.org/Graphics/SVG/1.1/DTD/svg11.dtd"><svg t="1498990251143" class="icon" style="" viewBox="0 0 1024 1024" version="1.1" xmlns="http://www.w3.org/2000/svg" p-id="2662" xmlns:xlink="http://www.w3.org/1999/xlink" width="128" height="128"><defs><style type="text/css"></style></defs><path d="M512 192C335.232 192 192 335.232 192 512s143.232 320 320 320 320-143.232 320-320S688.768 192 512 192zM512 768c-141.184 0-256-114.816-256-256 0-141.184 114.816-256 256-256 141.184 0 256 114.816 256 256C768 653.184 653.184 768 512 768z" p-id="2663"></path><path d="M512 92.032m-48 0a0.75 0.75 0 1 0 96 0 0.75 0.75 0 1 0-96 0Z" p-id="2664"></path><path d="M512 935.936m-48 0a0.75 0.75 0 1 0 96 0 0.75 0.75 0 1 0-96 0Z" p-id="2665"></path><path d="M89.984 512m-48 0a0.75 0.75 0 1 0 96 0 0.75 0.75 0 1 0-96 0Z" p-id="2666"></path><path d="M934.016 512m-48 0a0.75 0.75 0 1 0 96 0 0.75 0.75 0 1 0-96 0Z" p-id="2667"></path><path d="M213.568 213.632m-48 0a0.75 0.75 0 1 0 96 0 0.75 0.75 0 1 0-96 0Z" p-id="2668"></path><path d="M810.368 810.368m-48 0a0.75 0.75 0 1 0 96 0 0.75 0.75 0 1 0-96 0Z" p-id="2669"></path><path d="M213.568 810.432m-48 0a0.75 0.75 0 1 0 96 0 0.75 0.75 0 1 0-96 0Z" p-id="2670"></path><path d="M810.368 213.632m-48 0a0.75 0.75 0 1 0 96 0 0.75 0.75 0 1 0-96 0Z" p-id="2671"></path></svg>