<?xml version="1.0" standalone="no"?><!DOCTYPE svg PUBLIC "-//W3C//DTD SVG 1.1//EN" "http://www.w3.org/Graphics/SVG/1.1/DTD/svg11.dtd"><svg t="1498990278636" class="icon" style="" viewBox="0 0 1024 1024" version="1.1" xmlns="http://www.w3.org/2000/svg" p-id="2794" xmlns:xlink="http://www.w3.org/1999/xlink" width="128" height="128"><defs><style type="text/css"></style></defs><path d="M101.753 457.713h-65.365c-10.985 0-16.471-5.486-16.471-16.471s5.486-16.471 16.471-16.471h65.901c10.985 0 16.471 5.486 16.471 16.471-0.546 10.985-6.039 16.471-17.021 16.471zM155.022 256.704l-32.954-32.954c-8.24-8.24-8.24-16.471 0-24.705s16.471-8.24 24.705 0l32.954 32.954c8.24 8.24 8.24 16.471 0 24.705-5.486 2.738-9.328 4.389-12.076 4.389-2.738 0-7.143-1.635-12.634-4.389zM122.077 683.438c-8.24-8.24-8.24-16.471 0-24.705l32.954-32.954c8.24-8.24 16.471-8.24 24.705 0s8.24 16.471 0 24.705l-32.954 32.954c-5.486 2.738-9.883 4.389-12.076 4.389-2.738 0-7.143-1.635-12.634-4.389zM807.471 490.667c54.918 0 101.052 19.22 139.49 57.661s57.661 84.577 57.661 139.49c0 54.918-19.22 101.052-57.661 139.49s-84.577 57.661-139.49 57.661h-410.247c-41.195 0-75.787-14.286-104.349-43.388-28.546-28.546-43.388-63.705-43.388-104.349 0-36.801 12.076-69.205 36.801-96.662-41.195-16.471-73.584-42.836-98.302-79.082-24.705-36.246-36.801-76.335-36.801-120.267 0-58.765 20.863-109.287 62.607-151.023 41.742-41.742 91.718-62.607 150.476-62.607 39.54 0 76.887 10.435 111.491 31.857 35.151 21.415 61.505 49.425 79.082 85.123 4.389-1.635 11.534-2.195 22.514-2.195 47.785 0 91.159 13.724 130.162 41.195 38.988 27.459 67.545 63.156 85.123 106.547h14.827v0.546zM183.582 441.242c0 39.54 12.076 75.787 35.696 108.739 24.163 32.954 54.918 53.824 93.366 63.705 17.572-9.328 30.207-14.827 36.801-16.471-1.635-5.486-2.195-13.724-2.195-24.705 0-53.278 16.471-100.512 49.425-141.689s73.584-67.545 123.027-80.178c-35.696-60.41-87.316-90.070-155.968-90.070-50.525 0-93.366 17.572-127.962 52.176-34.61 35.151-52.176 77.987-52.176 128.51zM807.471 851.487c45.041 0 84.031-15.926 115.888-48.329 32.398-31.857 48.329-70.846 48.329-115.888 0-45.041-15.926-84.031-48.329-115.888-31.857-32.398-70.846-48.329-115.888-48.329-9.328 0-17.021 0.546-22.514 2.195-9.883 2.738-15.926-1.635-18.667-12.076-13.724-41.195-37.903-74.139-73.047-99.403-34.61-25.258-73.584-37.903-115.888-37.903-54.918 0-101.052 19.22-139.49 57.661s-57.661 84.577-57.661 139.49c0 14.827 0.546 25.812 2.195 32.954 2.738 9.883-1.635 15.926-12.076 18.667-25.812 6.595-47.228 20.863-63.705 42.292-16.471 21.415-24.705 45.041-24.705 70.846 0 31.306 10.985 58.218 33.501 81.278 22.514 22.514 49.425 34.046 81.278 34.046h410.798v-1.635zM347.792 178.72v-65.365c0-10.985 5.486-16.471 16.471-16.471s16.471 5.486 16.471 16.471v65.901c0 10.985-5.486 16.471-16.471 16.471-10.985-0.546-16.471-6.039-16.471-17.021zM548.801 256.704c-8.24-8.24-8.24-16.471 0-24.705l32.954-32.954c8.24-8.24 16.471-8.24 24.705 0s8.24 16.471 0 24.705l-32.954 32.954c-5.486 2.738-9.328 4.389-12.076 4.389s-7.143-1.635-12.634-4.389z" p-id="2795"></path></svg>