<?xml version="1.0" standalone="no"?><!DOCTYPE svg PUBLIC "-//W3C//DTD SVG 1.1//EN" "http://www.w3.org/Graphics/SVG/1.1/DTD/svg11.dtd"><svg t="1498990530482" class="icon" style="" viewBox="0 0 1025 1024" version="1.1" xmlns="http://www.w3.org/2000/svg" p-id="6153" xmlns:xlink="http://www.w3.org/1999/xlink" width="128.125" height="128"><defs><style type="text/css"></style></defs><path d="M483.724 605.962 372.871 605.962c-10.145 0-22.245 6.701-26.899 15.73l-72.227 138.497c-4.654 9.028-0.279 15.264 9.773 15.264l75.112 0-84.048 143.988c-5.119 8.749-3.258 10.704 4.281 3.909l191.829-183.453c7.539-6.888 5.398-20.942-4.747-20.942l-81.721 0 105.734-108.713C496.662 602.704 493.87 605.962 483.724 605.962z" p-id="6154"></path><path d="M605.096 689.917c0 15.451-12.472 28.016-28.016 28.016l0 0c-15.451 0-27.923-12.565-27.923-28.016l0-56.869c0-15.451 12.472-28.016 27.923-28.016l0 0c15.544 0 28.016 12.565 28.016 28.016L605.096 689.917z" p-id="6155"></path><path d="M605.096 841.165c0 15.451-12.472 28.016-28.016 28.016l0 0c-15.451 0-27.923-12.565-27.923-28.016l0-56.869c0-15.451 12.472-28.016 27.923-28.016l0 0c15.544 0 28.016 12.565 28.016 28.016L605.096 841.165z" p-id="6156"></path><path d="M977.585 223.978c-32.018-33.135-76.788-52.123-122.674-52.123-7.539 0-15.078 0.465-22.524 1.489-38.999-48.399-97.544-76.788-160.649-76.788-56.404 0-108.527 24.014-145.943 60.872-32.856-14.148-68.783-21.687-105.92-21.687-127.049 0-234.551 87.864-261.357 209.142C69.909 351.306 0.009 421.392 0.009 507.208c0 90.935 77.16 164.186 171.911 164.186l0 0 10.611 0 0-65.153L171.92 606.241c-58.079 0-105.269-44.118-105.269-98.381 0-53.333 47.283-96.706 105.455-96.706 3.816 0 7.632 0.186 11.448 0.558 0 0 19.174 1.117 28.202-7.167 6.981-6.515 8.284-22.524 8.284-22.524 10.797-102.477 96.799-179.73 199.927-179.73 64.315 0 123.233 28.574 161.114 79.58 0.838 1.117 1.582 2.327 2.513 3.444 1.675 2.42 3.351 4.84 5.026 7.353 0.931 1.396 1.955 2.885 2.885 4.281 8.191 12.938 24.2 18.522 38.627 13.589 13.31-4.468 26.341-6.143 38.161-6.515 82.558 0.279 149.666 67.573 149.666 150.225 0 62.919-23.455 105.641-71.762 130.586-19.36 10.052-39.092 15.078-53.984 17.684l0 66.922c20.57-2.513 51.285-8.749 82.093-24.107 40.674-20.384 87.584-59.382 104.152-132.726 60.499-8.191 141.568-50.447 145.478-170.329C1025.24 298.346 1008.766 256.276 977.585 223.978zM957.388 340.23c-2.42 71.855-43.28 95.868-73.251 103.873-5.398-114.856-100.429-206.535-216.588-206.535-11.914 0-23.734 0.931-35.369 2.792-13.775-17.964-29.598-33.88-46.91-47.562 0.093 0 0.186-0.093 0.279-0.186-0.093 0-0.093-0.093-0.093-0.093 23.827-18.615 53.798-29.598 86.188-29.598 48.12 0 92.331 24.293 118.299 64.967 7.911 12.379 22.897 18.057 37.044 14.148 9.028-2.513 18.429-3.816 27.923-3.816 28.016 0 55.38 11.634 74.926 31.925C948.453 289.411 958.226 314.262 957.388 340.23z" p-id="6157"></path></svg>