<?xml version="1.0" standalone="no"?><!DOCTYPE svg PUBLIC "-//W3C//DTD SVG 1.1//EN" "http://www.w3.org/Graphics/SVG/1.1/DTD/svg11.dtd"><svg t="1498990421790" class="icon" style="" viewBox="0 0 1025 1024" version="1.1" xmlns="http://www.w3.org/2000/svg" p-id="3879" xmlns:xlink="http://www.w3.org/1999/xlink" width="128.125" height="128"><defs><style type="text/css"></style></defs><path d="M221.836 510.673c7.261-8.378 8.564-25.507 8.564-25.507 12.847-122.228 115.526-214.481 238.685-214.481 76.8 0 147.084 34.164 192.233 95.046 1.024 1.303 1.955 2.7 2.979 4.096 2.048 2.886 4.003 5.772 5.958 8.751 1.117 1.676 2.327 3.444 3.444 5.12 9.775 15.453 28.858 22.156 46.08 16.291 15.919-5.399 31.465-7.354 45.615-7.727 77.265 0.279 143.174 49.711 168.029 118.505l82.851 0c-27.462-113.478-129.769-198.097-251.532-198.097-14.15 0-28.3 1.117-42.17 3.351-60.416-78.848-153.228-125.114-253.487-125.114-151.645 0-279.924 104.913-311.948 249.577-57.065 4.189-107.706 30.627-142.15 70.191L221.836 510.675z" p-id="3880"></path><path d="M984.157 604.695 39.75 604.695C17.78 604.695 0 622.568 0 644.537c0 21.969 17.78 39.75 39.75 39.75l514.234 0 430.173 0c21.969 0 39.843-17.78 39.843-39.843C1024 622.568 1006.22 604.695 984.157 604.695z" p-id="3881"></path><path d="M984.157 755.502 43.008 755.502c-21.969 0-39.75 17.78-39.75 39.843 0 21.969 17.78 39.75 39.75 39.75l941.149 0c21.969 0 39.843-17.78 39.843-39.843C1024 773.282 1006.22 755.502 984.157 755.502z" p-id="3882"></path></svg>