<?xml version="1.0" standalone="no"?><!DOCTYPE svg PUBLIC "-//W3C//DTD SVG 1.1//EN" "http://www.w3.org/Graphics/SVG/1.1/DTD/svg11.dtd"><svg t="1498990511130" class="icon" style="" viewBox="0 0 1024 1024" version="1.1" xmlns="http://www.w3.org/2000/svg" p-id="5313" xmlns:xlink="http://www.w3.org/1999/xlink" width="128" height="128"><defs><style type="text/css"></style></defs><path d="M538.298 695.682 538.298 695.682c-2.402-4.115-6.898-6.898-11.99-6.898-5.073 0-9.486 2.783-11.878 6.898l-0.102 0-20.61 38.344c0 18.041 14.569 32.61 32.591 32.61 18.041 0 32.61-14.569 32.61-32.61L538.298 695.682z" p-id="5314"></path><path d="M538.298 810.64 538.298 810.64c-2.402-4.115-6.898-6.898-11.99-6.898-5.073 0-9.486 2.784-11.878 6.898l-0.102 0-20.61 38.354c0 18.022 14.569 32.6 32.591 32.6 18.041 0 32.61-14.578 32.61-32.6L538.298 810.64z" p-id="5315"></path><path d="M772.924 261.497c-13.768 0-27.452 1.117-40.951 3.258-58.46-76.335-148.572-121.298-245.852-121.298-147.084 0-271.546 101.758-302.545 242.139C80.989 393.22 0 474.396 0 573.64c0 105.379 89.274 190.185 199.028 190.185l0 0 38.54 0 0-75.487-38.633 0.093c-67.212 0-121.856-51.107-121.856-113.85 0-61.719 54.831-111.988 122.135-111.988 4.375 0 8.844 0.195 13.219 0.652 0 0 22.249 1.303 32.582-8.294 8.099-7.54 9.495-26.065 9.495-26.065 12.567-118.598 112.175-208.058 231.61-208.058 74.473 0 142.708 33.14 186.461 92.151 0.931 1.313 1.955 2.7 2.895 4.012 1.946 2.793 3.91 5.585 5.762 8.471 1.117 1.676 2.234 3.258 3.258 5.018 9.598 14.904 28.03 21.42 44.786 15.732 15.36-5.213 30.441-7.075 44.218-7.54 95.604 0.27 173.335 78.28 173.335 173.978 0 72.797-27.182 122.331-83.037 151.273-16.291 8.471-32.861 13.871-47.29 17.417l0 78.383c22.528-3.817 51.107-11.366 79.77-25.702C954.554 704.712 1024 642.518 1024 512.563 1024 374.137 911.36 261.497 772.924 261.497z" p-id="5316"></path></svg>