<?xml version="1.0" standalone="no"?><!DOCTYPE svg PUBLIC "-//W3C//DTD SVG 1.1//EN" "http://www.w3.org/Graphics/SVG/1.1/DTD/svg11.dtd"><svg t="1498990479404" class="icon" style="" viewBox="0 0 1024 1024" version="1.1" xmlns="http://www.w3.org/2000/svg" p-id="5060" xmlns:xlink="http://www.w3.org/1999/xlink" width="128" height="128"><defs><style type="text/css"></style></defs><path d="M386.178 637.682c-2.495-4.115-6.898-6.898-11.99-6.898-5.073 0-9.486 2.783-11.888 6.898h-0.093l-20.61 38.344c0 18.041 14.569 32.61 32.591 32.61s32.591-14.569 32.591-32.61l-20.601-38.344zM386.178 752.64c-2.495-4.115-6.898-6.898-11.99-6.898-5.073 0-9.486 2.784-11.888 6.898h-0.093l-20.61 38.354c0 18.022 14.569 32.6 32.591 32.6s32.591-14.578 32.591-32.6l-20.601-38.354zM538.298 637.682c-2.402-4.115-6.898-6.898-11.99-6.898-5.073 0-9.486 2.783-11.878 6.898h-0.102l-20.61 38.344c0 18.041 14.569 32.61 32.591 32.61 18.041 0 32.61-14.569 32.61-32.61l-20.621-38.344zM538.298 867.682c-2.402-4.115-6.898-6.898-11.99-6.898-5.073 0-9.486 2.783-11.878 6.898h-0.102l-20.61 38.26c0 18.022 14.569 32.6 32.591 32.6 18.041 0 32.61-14.578 32.61-32.6l-20.621-38.26zM538.298 752.64c-2.402-4.115-6.898-6.898-11.99-6.898-5.073 0-9.486 2.784-11.878 6.898h-0.102l-20.61 38.354c0 18.022 14.569 32.6 32.591 32.6 18.041 0 32.61-14.578 32.61-32.6l-20.621-38.354zM690.53 637.682c-2.495-4.115-6.917-6.898-11.99-6.898-5.092 0-9.495 2.783-11.888 6.898h-0.093l-20.713 38.344c0 18.041 14.559 32.61 32.6 32.61 18.013 0 32.582-14.569 32.582-32.61l-20.498-38.344zM690.53 752.64c-2.495-4.115-6.917-6.898-11.99-6.898-5.092 0-9.495 2.784-11.888 6.898h-0.093l-20.713 38.354c0 18.022 14.559 32.6 32.6 32.6 18.013 0 32.582-14.578 32.582-32.6L690.53 752.64z" fill="" p-id="5061"></path><path d="M772.924 203.497c-13.768 0-27.452 1.117-40.951 3.258-58.46-76.335-148.572-121.298-245.852-121.298-147.084 0-271.546 101.758-302.545 242.139C80.989 335.22 0 416.396 0 515.64c0 105.379 89.274 190.185 199.028 190.185h38.54v-75.487l-38.633 0.093c-67.212 0-121.856-51.107-121.856-113.85 0-61.719 54.831-111.988 122.135-111.988 4.375 0 8.844 0.195 13.219 0.652 0 0 22.249 1.303 32.582-8.294 8.099-7.54 9.495-26.065 9.495-26.065 12.567-118.598 112.175-208.058 231.61-208.058 74.473 0 142.708 33.14 186.461 92.151 0.931 1.313 1.955 2.7 2.895 4.012 1.946 2.793 3.91 5.585 5.762 8.471 1.117 1.676 2.234 3.258 3.258 5.018 9.598 14.904 28.03 21.42 44.786 15.732 15.36-5.213 30.441-7.075 44.218-7.54 95.604 0.27 173.335 78.28 173.335 173.978 0 72.797-27.182 122.331-83.037 151.273-16.291 8.471-32.861 13.871-47.29 17.417v78.383c22.528-3.817 51.107-11.366 79.77-25.702C954.554 646.712 1024 584.518 1024 454.563c0-138.426-112.64-251.066-251.076-251.066z" fill="" p-id="5062"></path></svg>