<?xml version="1.0" standalone="no"?><!DOCTYPE svg PUBLIC "-//W3C//DTD SVG 1.1//EN" "http://www.w3.org/Graphics/SVG/1.1/DTD/svg11.dtd"><svg t="1498990471757" class="icon" style="" viewBox="0 0 1025 1024" version="1.1" xmlns="http://www.w3.org/2000/svg" p-id="4935" xmlns:xlink="http://www.w3.org/1999/xlink" width="128.125" height="128"><defs><style type="text/css"></style></defs><path d="M325.363 810.041a48.881 48.881 0 1 0 97.762 0 48.881 48.881 0 1 0-97.762 0zM389.234 705.388c0 8.193-6.704 14.897-14.897 14.897-8.286 0-14.897-6.704-14.897-14.897v-95.816c0-8.193 6.611-14.897 14.897-14.897 8.287 0 14.897 6.704 14.897 14.897v95.816zM575.755 928.007c0-27.048-21.843-48.881-48.891-48.881s-48.872 21.834-48.872 48.881c0 27.048 21.824 48.881 48.872 48.881 27.049 0 48.891-21.954 48.891-48.881zM541.855 825.962c0 8.296-6.704 14.99-14.906 14.99-8.277 0-14.888-6.704-14.888-14.99v-216.39c0-8.193 6.704-14.897 14.888-14.897 8.296 0 14.906 6.704 14.906 14.897v216.39zM728.376 809.38c0-27.057-21.945-48.89-48.881-48.89s-48.881 21.834-48.881 48.89c0 27.057 21.834 48.891 48.881 48.891 27.057-0.113 48.881-21.946 48.881-48.891zM694.495 705.388c0 8.193-6.704 14.897-14.99 14.897-8.287 0-14.897-6.704-14.897-14.897v-95.816c0-8.193 6.704-14.897 14.897-14.897 8.296 0 14.99 6.704 14.99 14.897v95.816z" fill="" p-id="4936"></path><path d="M773.058 165.172c-13.77 0-27.457 1.024-40.958 3.259C673.536 92.083 583.502 47.113 486.205 47.113c-147.109 0-271.593 101.766-302.598 242.171C81.004 296.919 0.001 378.108 0.001 477.36c0 105.397 89.29 190.218 199.063 190.218h38.546v-75.51l-38.639 0.093C131.747 592.068 77 541.055 77 478.198c0-61.73 54.84-112.008 122.156-112.008 4.376 0 8.845 0.186 13.221 0.652 0 0 22.253 1.397 32.587-8.286 8.1-7.449 9.497-26.07 9.497-26.07 12.476-118.618 112.101-208.094 231.557-208.094 74.486 0 142.724 33.146 186.493 92.176 0.931 1.303 1.946 2.607 2.784 4.004 2.058 2.793 3.92 5.586 5.875 8.473 1.108 1.676 2.234 3.352 3.259 5.028 9.497 14.897 28.025 21.415 44.794 15.735 15.363-5.214 30.446-7.076 44.226-7.542 95.621 0.279 173.356 78.21 173.356 174.017 0 72.81-27.187 122.343-83.051 151.299-16.294 8.473-32.857 13.873-47.298 17.402v78.405c22.532-3.92 51.116-11.359 79.793-25.707C954.533 608.445 1024 546.343 1024 416.366c0.177-138.534-112.482-251.194-250.942-251.194z" fill="" p-id="4937"></path></svg>