<?xml version="1.0" standalone="no"?><!DOCTYPE svg PUBLIC "-//W3C//DTD SVG 1.1//EN" "http://www.w3.org/Graphics/SVG/1.1/DTD/svg11.dtd"><svg t="1498990456761" class="icon" style="" viewBox="0 0 1025 1024" version="1.1" xmlns="http://www.w3.org/2000/svg" p-id="4810" xmlns:xlink="http://www.w3.org/1999/xlink" width="128.125" height="128"><defs><style type="text/css"></style></defs><path d="M705.507 699.21c-1.117 0-2.234 0-3.352 0.186L435.891 699.396l0 69.173 268.033-0.093c21.785 3.352 38.543 22.251 38.543 44.967 0 25.137-20.389 45.526-45.526 45.526-19.085 0-34.633 15.548-34.633 34.633 0 19.085 15.548 34.633 34.633 34.633 63.308 0 114.792-51.484 114.792-114.792S768.721 699.21 705.507 699.21z" p-id="4811"></path><path d="M909.301 584.139l-42.826 0c0.186-0.186 0.279-0.372 0.466-0.559-0.559 0.279-1.117 0.559-1.583 0.745 32.026-33.143 57.442-82.858 57.442-157.524 0-124.846-101.478-226.325-226.231-226.325-12.382 0-24.764 1.024-36.96 2.979-52.694-68.8-133.877-109.299-221.576-109.299-132.573 0-244.758 91.703-272.688 218.225C72.99 319.179 0 392.355 0 481.823c0 94.868 80.438 171.396 179.402 171.396l0 0 474.248 0.372-0.186 0.093 255.744-0.279c25.137 0 45.526 20.389 45.526 45.526 0 25.044-20.389 45.526-45.526 45.526-19.178 0-34.633 15.548-34.633 34.633s15.455 34.633 34.633 34.633c63.308 0 114.792-51.484 114.792-114.792C1024.093 635.623 972.609 584.139 909.301 584.139zM179.309 585.257c-60.608 0-109.857-46.084-109.857-102.689 0-55.673 49.343-100.92 110.043-100.92 4.003 0 7.913 0.186 11.917 0.559 0 0 20.016 1.21 29.419-7.448 7.262-6.796 8.565-23.461 8.565-23.461 11.265-106.785 101.013-187.409 208.636-187.409 67.125 0 128.57 29.792 168.044 83.045 0.838 1.21 1.676 2.421 2.514 3.631 1.769 2.514 3.538 5.027 5.214 7.634 1.024 1.49 2.048 2.979 2.979 4.469 8.565 13.406 25.23 19.365 40.312 14.244 13.779-4.748 27.464-6.424 39.846-6.796 86.21 0.279 156.221 70.476 156.221 156.779 0 52.229-15.548 91.051-47.294 117.957 0.093-1.862 0.186-3.724 0.186-5.493 0-63.308-51.484-114.792-114.792-114.792-19.085 0-34.633 15.548-34.633 34.633 0 19.178 15.548 34.633 34.633 34.633 25.044 0 45.526 20.389 45.526 45.526 0 22.716-16.758 41.615-38.636 44.874L179.309 585.257z" p-id="4812"></path></svg>