<?xml version="1.0" standalone="no"?><!DOCTYPE svg PUBLIC "-//W3C//DTD SVG 1.1//EN" "http://www.w3.org/Graphics/SVG/1.1/DTD/svg11.dtd"><svg t="1498990400649" class="icon" style="" viewBox="0 0 1025 1024" version="1.1" xmlns="http://www.w3.org/2000/svg" p-id="3754" xmlns:xlink="http://www.w3.org/1999/xlink" width="128.125" height="128"><defs><style type="text/css"></style></defs><path d="M626.357 586.971H500.789c-11.449 0-25.132 14.893-30.438 25.132l-81.726 163.732c-5.306 10.239-0.372 24.294 11.077 24.294h84.984l-95.13 159.543c-5.864 9.96-3.63 10.425 4.84 2.699l217.161-204.968c8.564-7.726 6.05-21.223-5.399-21.223h-92.431l119.611-133.666c7.633-8.562 4.561-15.543-6.981-15.543z" fill="" p-id="3755"></path><path d="M772.869 174.15c-13.776 0-27.459 1.024-40.956 3.258-58.456-76.235-148.56-121.193-245.831-121.193-147.07 0-271.522 101.739-302.518 242.107C80.987 305.862 0.005 387.123 0.005 486.349c0 105.369 89.266 190.167 199.103 190.167h38.536v-75.49l-38.629 0.093c-67.206 0-121.845-51.102-121.845-113.933 0-61.714 54.732-111.978 122.124-111.978 4.375 0 8.843 0.186 13.218 0.652 0 0 22.247 1.303 32.579-8.284 8.098-7.54 9.494-26.063 9.494-26.063 12.566-118.587 112.071-208.039 231.496-208.039 74.466 0 142.695 33.044 186.444 92.152 0.931 1.303 1.955 2.699 2.886 4.003a661.295 661.295 0 0 1 5.864 8.471c1.117 1.675 2.234 3.351 3.258 5.026 9.494 14.893 28.018 21.409 44.773 15.731 15.359-5.213 30.531-7.074 44.214-7.54 95.596 0.279 173.32 78.282 173.32 173.971 0 72.79-27.18 122.31-83.03 151.259-16.289 8.471-32.858 13.869-47.286 17.406v78.375c22.526-3.909 51.102-11.356 79.772-25.691 58.27-29.228 127.709-91.314 127.709-221.257-0.093-138.507-112.723-251.23-251.136-251.23z" fill="" p-id="3756"></path></svg>